<?xml version="1.0" standalone="no"?>
<!DOCTYPE svg PUBLIC "-//W3C//DTD SVG 20010904//EN"
 "http://www.w3.org/TR/2001/REC-SVG-20010904/DTD/svg10.dtd">
<svg version="1.0" xmlns="http://www.w3.org/2000/svg"
 width="805.000000pt" height="215.000000pt" viewBox="0 0 805.000000 215.000000"
 preserveAspectRatio="xMidYMid meet">

<g transform="translate(0.000000,215.000000) scale(0.100000,-0.100000)"
fill="#000000" stroke="none">
<path d="M743 1686 c-86 -28 -133 -73 -133 -126 0 -31 57 -87 108 -107 30 -11
74 -18 122 -18 92 0 158 23 200 71 34 39 37 62 15 104 -35 67 -209 110 -312
76z"/>
<path d="M388 1490 c-143 -95 -199 -334 -88 -380 98 -41 260 139 262 291 0
114 -76 154 -174 89z"/>
<path d="M1162 1513 c-22 -9 -44 -64 -44 -112 1 -71 36 -153 93 -215 62 -68
123 -95 169 -76 82 34 79 174 -6 297 -60 87 -149 132 -212 106z"/>
<path d="M2820 1130 l0 -260 55 0 55 0 0 260 0 260 -55 0 -55 0 0 -260z"/>
<path d="M2997 1383 c-4 -3 -7 -120 -7 -260 l0 -253 53 1 c52 0 52 1 106 65
29 35 57 64 61 64 4 0 25 -29 46 -65 l39 -65 68 0 67 0 -74 112 -75 112 56 65
c31 36 63 74 71 84 14 16 11 17 -50 17 l-66 0 -94 -112 -93 -113 -3 178 -2
177 -49 0 c-26 0 -51 -3 -54 -7z"/>
<path d="M4266 1313 c-11 -117 -11 -118 -49 -89 -81 61 -199 54 -264 -16 -74
-79 -70 -214 10 -296 66 -68 191 -68 264 0 l23 21 6 -31 c6 -31 8 -32 60 -32
62 0 59 -8 44 117 -7 61 -5 115 5 205 8 68 15 140 15 161 l0 37 -54 0 -54 0
-6 -77z m-66 -179 c48 -44 55 -64 36 -103 -35 -67 -138 -100 -184 -58 -49 45
-52 127 -7 173 18 18 35 24 70 24 38 0 51 -6 85 -36z"/>
<path d="M5589 1380 c-102 -17 -158 -66 -166 -143 -4 -33 1 -50 19 -77 32 -49
77 -68 202 -85 120 -17 146 -27 146 -55 0 -45 -48 -64 -145 -58 -68 4 -99 22
-116 66 -7 19 -16 22 -64 22 -60 0 -59 1 -45 -52 24 -85 142 -145 271 -136
130 10 209 73 209 169 0 86 -59 125 -220 144 -121 14 -161 35 -141 73 33 61
203 52 233 -12 10 -23 17 -26 66 -26 l55 0 -7 33 c-10 49 -36 79 -96 109 -62
30 -132 39 -201 28z"/>
<path d="M7116 1313 c-11 -117 -11 -118 -49 -89 -81 61 -199 54 -264 -16 -74
-79 -70 -214 10 -296 66 -68 191 -68 264 0 l23 21 6 -31 c6 -31 8 -32 60 -32
62 0 59 -8 44 117 -7 61 -5 115 5 205 8 68 15 140 15 161 l0 37 -54 0 -54 0
-6 -77z m-66 -179 c48 -44 55 -64 36 -103 -35 -67 -138 -100 -184 -58 -49 45
-52 127 -7 173 18 18 35 24 70 24 38 0 51 -6 85 -36z"/>
<path d="M1852 1128 l3 -253 55 0 55 0 3 88 3 87 101 0 c116 0 172 19 210 72
50 71 27 182 -49 229 -35 22 -50 24 -211 27 l-172 4 2 -254z m323 127 c14 -13
25 -31 25 -40 0 -9 -11 -27 -25 -40 -22 -23 -32 -25 -115 -25 l-90 0 0 65 0
65 90 0 c83 0 93 -2 115 -25z"/>
<path d="M4964 1300 c-16 -44 -23 -52 -56 -61 -33 -8 -38 -14 -38 -39 0 -27 3
-30 34 -30 l34 0 4 -109 c3 -91 7 -115 24 -138 35 -47 80 -65 154 -60 95 6
110 16 110 78 l0 50 -30 -16 c-32 -17 -107 -20 -130 -5 -12 7 -15 30 -15 102
l0 93 83 3 82 3 0 44 0 45 -85 0 -85 0 0 45 c0 45 0 45 -34 45 -32 0 -35 -3
-52 -50z"/>
<path d="M6010 1325 c-5 -14 -13 -37 -16 -51 -5 -19 -16 -27 -50 -35 -39 -10
-44 -14 -44 -40 0 -27 3 -29 40 -29 l40 0 0 -97 c0 -160 39 -209 163 -207 40
0 84 6 100 12 24 10 27 17 27 58 0 44 -1 46 -22 39 -13 -4 -47 -10 -77 -12
-73 -7 -81 5 -81 119 l0 88 85 0 85 0 0 45 0 45 -85 0 -85 0 0 45 c0 45 0 45
-35 45 -29 0 -37 -5 -45 -25z"/>
<path d="M2468 1257 c-98 -28 -152 -98 -152 -197 1 -82 34 -134 114 -176 54
-29 180 -26 243 5 111 54 144 207 64 298 -58 66 -174 96 -269 70z m151 -102
c52 -27 66 -120 25 -166 -42 -47 -143 -48 -188 -2 -21 21 -26 35 -26 75 0 41
5 54 29 79 25 24 37 29 81 29 28 0 64 -7 79 -15z"/>
<path d="M3527 1256 c-112 -41 -161 -179 -106 -294 52 -107 204 -135 299 -55
l30 25 0 -31 0 -31 60 0 60 0 -8 63 c-9 79 -9 185 0 265 l8 63 -58 -3 c-53 -3
-57 -5 -60 -30 l-3 -26 -47 29 c-57 35 -123 44 -175 25z m163 -112 c17 -15 38
-40 46 -56 15 -28 14 -32 -11 -68 -31 -45 -93 -74 -136 -65 -16 4 -40 21 -55
38 -23 27 -26 38 -21 81 3 38 11 55 31 73 39 33 104 32 146 -3z"/>
<path d="M4558 1257 c-98 -28 -152 -98 -152 -197 1 -82 34 -134 114 -176 54
-29 180 -26 243 5 111 54 144 207 64 298 -58 66 -174 96 -269 70z m151 -102
c52 -27 66 -120 25 -166 -42 -47 -143 -48 -188 -2 -21 21 -26 35 -26 75 0 41
5 54 29 79 25 24 37 29 81 29 28 0 64 -7 79 -15z"/>
<path d="M6302 1111 c3 -162 8 -178 70 -224 52 -39 163 -31 203 13 23 26 33
25 37 -2 3 -20 10 -23 61 -26 53 -3 58 -1 53 15 -16 57 -26 151 -26 255 l0
119 -52 -3 -53 -3 -5 -120 c-6 -156 -17 -175 -99 -175 -26 0 -44 7 -59 23 -19
20 -22 36 -24 147 l-3 125 -53 3 -53 3 3 -150z"/>
<path d="M7249 1218 c10 -24 52 -112 93 -197 l74 -153 -23 -11 c-23 -10 -44
-7 -125 20 -15 4 -18 -1 -18 -36 0 -52 27 -71 107 -77 48 -4 65 -1 98 18 36
21 49 41 137 218 59 119 97 208 97 228 1 32 0 32 -44 32 l-46 0 -40 -87 c-23
-49 -51 -110 -63 -137 l-22 -49 -60 134 -61 134 -61 3 -62 3 19 -43z"/>
<path d="M291 1006 c-33 -18 -50 -53 -51 -102 -1 -164 162 -341 275 -298 38
15 57 97 40 175 -18 83 -99 188 -170 220 -47 22 -62 23 -94 5z"/>
<path d="M1295 1001 c-90 -41 -176 -178 -177 -282 0 -114 76 -154 174 -89 139
92 198 330 93 378 -34 16 -42 15 -90 -7z"/>
<path d="M763 680 c-57 -12 -96 -34 -127 -70 -48 -58 -26 -114 61 -157 50 -24
70 -28 143 -28 73 0 93 4 143 28 58 29 87 64 87 106 0 30 -54 87 -99 105 -50
19 -153 28 -208 16z"/>
</g>
</svg>
