<?xml version="1.0" standalone="no"?>
<!DOCTYPE svg PUBLIC "-//W3C//DTD SVG 20010904//EN"
 "http://www.w3.org/TR/2001/REC-SVG-20010904/DTD/svg10.dtd">
<svg version="1.0" xmlns="http://www.w3.org/2000/svg"
 width="588.000000pt" height="139.000000pt" viewBox="0 0 588.000000 139.000000"
 preserveAspectRatio="xMidYMid meet">

<g transform="translate(0.000000,139.000000) scale(0.100000,-0.100000)"
fill="#000000" stroke="none">
<path d="M0 695 l0 -695 2940 0 2940 0 0 695 0 695 -2940 0 -2940 0 0 -695z
m2198 503 c19 -19 14 -46 -9 -59 -18 -9 -25 -7 -41 9 -16 16 -18 23 -9 41 13
23 40 28 59 9z m-588 -63 c0 -59 4 -63 34 -40 45 34 123 8 150 -49 57 -121
-54 -259 -154 -189 -17 12 -25 13 -28 5 -2 -7 -19 -12 -38 -12 l-34 0 0 170 0
170 35 0 35 0 0 -55z m720 -115 l0 -170 -35 0 -35 0 0 170 0 170 35 0 35 0 0
-170z m311 115 c0 -30 1 -71 1 -90 0 -19 -1 -71 -1 -115 l-1 -80 -35 0 c-19 0
-35 4 -35 9 0 6 -12 3 -27 -5 -84 -43 -163 16 -163 121 0 105 79 164 163 121
l27 -15 0 55 0 54 35 0 35 0 1 -55z m2009 -115 l0 -170 -35 0 c-19 0 -35 5
-35 10 0 6 -13 4 -30 -5 -43 -22 -84 -19 -119 11 -61 51 -64 153 -5 212 36 36
76 42 124 17 l30 -16 0 56 0 55 35 0 35 0 0 -170z m-4273 70 c26 -49 50 -90
53 -90 3 0 27 41 53 90 46 87 49 90 82 90 l35 0 0 -165 0 -165 -35 0 -34 0 -3
97 -3 97 -44 -82 c-24 -45 -48 -82 -52 -82 -4 0 -27 37 -51 81 l-43 81 -3 -96
-3 -96 -34 0 -35 0 0 165 0 165 34 0 c33 0 37 -3 83 -90z m3398 -27 c26 -65
56 -139 66 -165 l19 -48 -40 0 c-34 0 -42 4 -50 25 -9 24 -14 25 -83 25 -69 0
-75 -2 -85 -25 -10 -21 -19 -25 -51 -25 l-40 0 67 165 67 165 41 0 42 0 47
-117z m-2928 30 c97 -46 97 -190 0 -236 -69 -33 -145 -10 -179 54 -35 66 -12
147 52 181 43 22 82 23 127 1z m300 -3 c45 -27 66 -64 66 -115 0 -51 -21 -88
-66 -115 -87 -54 -200 11 -200 115 0 74 60 135 133 135 19 0 49 -9 67 -20z
m314 -9 c28 -29 29 -32 29 -130 l0 -101 -35 0 -35 0 0 88 c0 93 -8 112 -45
112 -37 0 -45 -19 -45 -112 l0 -88 -40 0 -40 0 0 126 0 127 49 -5 c28 -3 56
-1 63 3 27 18 69 9 99 -20z m1441 -8 c20 -20 31 -44 35 -71 l6 -42 -92 0 c-72
0 -91 -3 -91 -14 0 -38 79 -63 108 -34 9 9 16 7 32 -7 28 -25 25 -34 -15 -51
-101 -42 -195 19 -195 126 0 52 18 83 64 111 45 29 109 21 148 -18z m228 7 c0
-20 -5 -30 -15 -30 -9 0 -27 -11 -40 -25 -22 -21 -25 -33 -25 -100 l0 -75 -35
0 -35 0 0 125 0 125 35 0 c24 0 35 -5 35 -15 0 -12 6 -11 33 5 42 26 47 25 47
-10z m186 15 c31 -13 34 -17 24 -36 -9 -17 -17 -19 -38 -13 -46 13 -76 10 -80
-7 -2 -12 14 -22 56 -37 42 -16 62 -29 70 -47 18 -39 15 -54 -17 -86 -23 -23
-38 -29 -71 -29 -49 0 -110 24 -110 43 0 29 25 38 58 21 41 -20 77 -15 77 10
0 14 -13 24 -49 36 -86 29 -107 86 -50 138 30 26 78 29 130 7z m744 0 c35 -18
37 -26 11 -49 -15 -14 -24 -15 -40 -7 -11 6 -29 11 -40 11 -24 0 -61 -45 -61
-75 0 -30 37 -75 61 -75 11 0 29 5 40 11 16 8 25 7 40 -7 26 -23 24 -31 -11
-49 -110 -57 -239 66 -183 175 36 70 118 99 183 65z m239 1 c40 -21 51 -56 51
-157 l0 -90 -47 1 c-27 0 -66 -2 -88 -6 -32 -4 -46 -1 -68 16 -24 19 -28 28
-25 63 4 56 41 83 109 80 35 -2 49 2 49 11 0 27 -29 39 -79 32 -48 -6 -61 1
-61 35 0 25 117 36 159 15z m603 -12 c24 -22 48 -74 48 -104 0 -19 -6 -20 -90
-20 -80 0 -90 -2 -90 -18 0 -10 5 -23 12 -30 16 -16 81 -15 97 1 10 10 16 7
32 -12 19 -24 19 -24 -3 -40 -15 -10 -44 -16 -81 -16 -55 0 -61 2 -93 37 -60
66 -46 174 28 212 41 21 111 16 140 -10z m268 11 c27 -14 33 -14 60 0 35 18
64 19 93 3 41 -21 46 -39 47 -145 l0 -103 -30 0 -30 0 0 73 c0 85 -15 122 -50
122 -35 0 -50 -37 -50 -122 l0 -73 -30 0 -30 0 0 78 c0 83 -16 122 -49 122
-33 0 -41 -22 -41 -112 l0 -88 -40 0 -40 0 0 125 0 126 50 -2 c27 -2 53 0 57
4 11 12 53 8 83 -8z m-3260 -73 c0 -84 16 -122 50 -122 39 0 50 27 50 116 l0
84 35 0 35 0 0 -125 0 -125 -35 0 c-19 0 -35 5 -35 11 0 5 -10 3 -22 -5 -26
-19 -71 -21 -100 -5 -32 17 -48 71 -48 164 l0 85 35 0 35 0 0 -78z m300 -47
l0 -125 -35 0 -35 0 0 125 0 125 35 0 35 0 0 -125z m3285 36 l32 -84 29 84
c29 84 29 84 67 87 l37 3 -24 -63 c-98 -259 -109 -278 -168 -278 -42 0 -61 12
-56 36 3 14 11 18 29 16 54 -5 55 18 4 145 -26 65 -50 124 -52 131 -4 10 4 13
32 10 38 -3 38 -4 70 -87z m-4085 -496 c0 -8 -7 -15 -15 -15 -8 0 -15 7 -15
15 0 8 7 15 15 15 8 0 15 -7 15 -15z m1250 1 c0 -8 -8 -13 -17 -12 -10 0 -19
-7 -21 -16 -2 -13 3 -18 17 -18 12 0 21 -4 21 -10 0 -5 -9 -10 -20 -10 -18 0
-20 -7 -20 -75 0 -43 -4 -75 -10 -75 -6 0 -10 30 -10 70 0 54 -4 72 -15 76 -8
4 -15 10 -15 15 0 5 7 9 15 9 9 0 15 9 15 24 0 13 6 27 13 29 24 10 47 7 47
-7z m-2266 -100 c51 -115 52 -116 32 -116 -8 0 -17 11 -20 25 -6 23 -11 25
-70 25 -57 0 -64 -2 -74 -25 -6 -14 -18 -25 -26 -25 -12 0 -9 14 13 63 16 34
38 83 49 110 12 26 27 47 35 47 9 0 33 -42 61 -104z m206 4 l0 -100 60 0 c33
0 60 -4 60 -10 0 -6 -32 -10 -75 -10 l-75 0 0 110 c0 91 3 110 15 110 12 0 15
-18 15 -100z m1330 50 l0 -51 63 3 62 3 3 48 c2 26 7 47 13 47 5 0 9 -48 9
-110 0 -67 -4 -110 -10 -110 -5 0 -10 23 -10 50 l0 50 -65 0 -65 0 0 -50 c0
-38 -4 -50 -15 -50 -12 0 -15 19 -15 110 0 91 3 110 15 110 11 0 15 -12 15
-50z m400 15 c0 -32 2 -35 19 -25 32 16 60 12 86 -15 65 -64 -7 -177 -86 -135
-13 7 -19 7 -19 0 0 -5 -7 -10 -15 -10 -12 0 -15 19 -15 110 0 91 3 110 15
110 11 0 15 -11 15 -35z m797 -40 c13 -38 26 -77 29 -85 4 -9 17 19 33 70 37
116 51 116 88 3 l30 -88 29 88 c16 50 34 87 41 87 18 0 17 -3 -20 -115 -20
-59 -40 -101 -48 -103 -10 -2 -24 25 -45 90 l-31 93 -29 -93 c-20 -65 -33 -92
-43 -90 -8 2 -31 49 -53 111 -32 90 -35 108 -21 105 10 -2 25 -28 40 -73z
m483 33 c0 -39 1 -40 18 -25 59 54 144 -26 112 -104 -20 -46 -78 -66 -109 -36
-11 10 -14 10 -18 0 -14 -38 -23 0 -23 97 0 67 4 110 10 110 6 0 10 -19 10
-42z m288 26 c26 -18 31 -71 6 -81 -13 -5 -12 -8 5 -25 64 -59 -27 -126 -111
-82 -19 10 -27 19 -21 25 6 6 22 3 42 -7 26 -13 38 -14 57 -5 44 20 24 71 -28
71 -39 0 -35 16 7 24 39 8 49 18 40 45 -8 26 -44 33 -79 16 -37 -19 -48 -9
-17 16 28 23 69 24 99 3z m285 7 c45 -17 67 -51 67 -101 0 -74 -45 -110 -141
-110 l-49 0 0 110 0 110 49 0 c27 0 61 -4 74 -9z m657 -101 c0 -67 -4 -110
-10 -110 -6 0 -10 43 -10 110 0 67 4 110 10 110 6 0 10 -43 10 -110z m-3973
38 c13 -12 23 -32 23 -45 0 -22 -4 -23 -65 -23 -69 0 -78 -7 -45 -40 23 -23
42 -25 72 -9 27 14 38 1 14 -17 -52 -38 -130 5 -130 71 0 71 81 110 131 63z
m173 2 c26 -26 30 -150 5 -150 -8 0 -15 4 -15 9 0 5 -13 4 -29 -2 -43 -16 -81
3 -81 41 0 41 31 65 75 60 22 -3 35 0 35 8 0 22 -28 36 -60 29 -18 -4 -30 -3
-30 3 0 27 74 28 100 2z m80 10 c0 -7 6 -7 19 0 46 24 56 4 11 -22 -28 -16
-30 -21 -30 -78 0 -47 -3 -60 -15 -60 -12 0 -15 16 -15 85 0 69 3 85 15 85 8
0 15 -5 15 -10z m110 0 c0 -7 6 -7 19 0 30 16 59 12 81 -10 16 -16 20 -33 20
-85 0 -50 -3 -65 -15 -65 -11 0 -15 16 -17 66 -4 80 -20 98 -62 71 -23 -16
-26 -24 -26 -77 0 -33 -4 -60 -10 -60 -6 0 -10 35 -10 85 0 50 4 85 10 85 6 0
10 -5 10 -10z m180 -75 c0 -69 -3 -85 -15 -85 -12 0 -15 16 -15 85 0 69 3 85
15 85 12 0 15 -16 15 -85z m60 75 c0 -7 6 -7 19 0 28 14 52 12 73 -7 14 -13
18 -31 18 -85 0 -39 -4 -68 -10 -68 -6 0 -10 26 -10 59 0 79 -24 106 -71 81
-16 -9 -19 -22 -19 -75 0 -51 -3 -65 -15 -65 -12 0 -15 16 -15 85 0 69 3 85
15 85 8 0 15 -5 15 -10z m259 -2 c11 -10 14 -10 18 0 13 35 23 2 23 -78 0 -77
-3 -93 -20 -110 -20 -20 -71 -27 -104 -14 -32 12 -15 24 24 18 42 -7 80 13 80
43 0 15 -16 17 -25 3 -3 -5 -20 -10 -36 -10 -40 0 -79 39 -79 80 0 59 80 104
119 68z m421 -51 c0 -65 11 -87 41 -87 34 0 49 28 49 91 0 46 3 59 15 59 12 0
15 -16 15 -85 0 -69 -3 -85 -15 -85 -8 0 -15 4 -15 10 0 6 -9 5 -24 -1 -35
-16 -75 -3 -86 27 -6 14 -10 50 -10 80 0 41 4 54 15 54 12 0 15 -14 15 -63z
m665 38 c52 -51 16 -145 -55 -145 -40 0 -90 47 -90 85 0 16 12 38 29 56 38 37
82 39 116 4z m85 15 c0 -7 6 -7 19 0 46 24 56 4 11 -22 -28 -16 -30 -21 -30
-78 0 -47 -3 -60 -15 -60 -12 0 -15 16 -15 85 0 69 3 85 15 85 8 0 15 -5 15
-10z m630 -10 c11 -11 20 -24 20 -29 0 -5 3 -16 6 -25 5 -14 -4 -16 -64 -16
-66 0 -70 -1 -65 -21 8 -30 47 -45 79 -30 34 15 54 2 23 -15 -62 -34 -129 3
-129 71 0 71 83 112 130 65z m885 -5 c14 -13 25 -33 25 -45 0 -18 -6 -20 -65
-20 -72 0 -86 -16 -40 -46 19 -13 31 -14 55 -6 34 12 51 -2 21 -17 -35 -19
-71 -12 -102 18 -31 31 -36 59 -17 94 27 52 83 62 123 22z m87 -35 c11 -30 24
-59 28 -63 4 -5 17 19 30 53 22 58 35 78 47 67 9 -10 -60 -167 -74 -167 -7 0
-13 1 -13 3 0 1 -16 40 -35 86 -28 66 -32 82 -19 79 9 -2 25 -27 36 -58z m256
43 c12 -10 24 -30 28 -45 l6 -28 -66 0 c-73 0 -87 -16 -41 -46 19 -13 31 -14
55 -6 34 12 51 -2 21 -17 -58 -32 -131 11 -131 76 0 67 79 108 128 66z m249 2
c47 -33 44 -118 -6 -144 -87 -47 -172 71 -97 135 31 27 72 31 103 9z m93 5 c0
-7 6 -7 19 0 54 29 113 -10 113 -75 0 -65 -59 -104 -113 -75 -17 10 -19 7 -19
-25 0 -24 -4 -35 -15 -35 -12 0 -15 19 -15 110 0 91 3 110 15 110 8 0 15 -5
15 -10z m290 -10 c11 -11 20 -24 20 -29 0 -5 3 -16 6 -25 5 -14 -4 -16 -64
-16 -66 0 -70 -1 -65 -21 8 -30 47 -45 79 -30 34 15 54 2 23 -15 -62 -34 -129
3 -129 71 0 71 83 112 130 65z m80 3 c0 -15 1 -15 18 0 21 19 42 22 42 7 0 -5
-4 -10 -10 -10 -5 0 -19 -9 -30 -20 -15 -15 -20 -33 -20 -75 0 -30 -4 -55 -10
-55 -6 0 -10 35 -10 85 0 50 4 85 10 85 6 0 10 -7 10 -17z m181 6 c11 -5 17
-14 14 -20 -4 -5 -14 -5 -26 2 -23 12 -59 3 -59 -14 0 -7 19 -21 43 -32 30
-14 43 -27 45 -44 7 -45 -60 -68 -104 -37 -25 19 -12 31 16 16 29 -15 72 -5
68 17 -2 9 -22 23 -45 30 -49 17 -64 45 -37 74 19 21 55 25 85 8z"/>
<path d="M1635 1030 c-40 -44 -12 -130 42 -130 34 0 63 34 63 75 0 65 -66 99
-105 55z"/>
<path d="M2470 1030 c-29 -29 -27 -94 2 -114 30 -21 54 -20 78 4 41 41 14 130
-40 130 -11 0 -29 -9 -40 -20z"/>
<path d="M4475 1030 c-40 -44 -12 -130 42 -130 34 0 63 34 63 75 0 65 -66 99
-105 55z"/>
<path d="M3665 1028 c-9 -24 -19 -49 -22 -55 -4 -9 8 -13 42 -13 43 0 46 2 39
22 -11 34 -34 88 -38 88 -2 0 -12 -19 -21 -42z"/>
<path d="M740 1028 c-27 -30 -26 -79 3 -106 46 -44 107 -13 107 53 0 66 -67
99 -110 53z"/>
<path d="M1039 1031 c-47 -38 -18 -131 41 -131 28 0 59 32 66 67 5 26 1 37
-19 57 -31 31 -56 33 -88 7z"/>
<path d="M2770 1031 c-15 -30 -14 -31 45 -31 38 0 55 4 55 13 0 39 -81 53
-100 18z"/>
<path d="M4195 944 c-18 -19 -16 -33 8 -48 22 -14 71 4 75 28 7 35 -53 50 -83
20z"/>
<path d="M4775 1028 c-15 -23 -15 -23 41 -26 31 -2 58 -1 61 2 3 2 0 14 -7 25
-15 30 -73 29 -95 -1z"/>
<path d="M311 437 c-12 -27 -21 -53 -21 -58 0 -5 21 -9 46 -9 42 0 45 1 38 23
-3 12 -15 38 -24 57 l-18 35 -21 -48z"/>
<path d="M2352 434 c-48 -33 -14 -124 41 -110 33 8 53 56 36 88 -22 41 -42 47
-77 22z"/>
<path d="M3630 430 c-11 -11 -20 -31 -20 -45 0 -26 31 -65 53 -65 30 0 57 31
57 65 0 24 -7 39 -22 49 -30 21 -44 20 -68 -4z"/>
<path d="M4090 409 l0 -92 40 6 c78 10 114 59 90 121 -11 29 -61 56 -105 56
-25 0 -25 0 -25 -91z"/>
<path d="M782 434 c-35 -24 -26 -34 33 -34 30 0 55 4 55 9 0 12 -40 41 -55 41
-6 0 -21 -7 -33 -16z"/>
<path d="M951 376 c-28 -34 12 -67 55 -47 37 17 29 55 -12 59 -19 2 -36 -3
-43 -12z"/>
<path d="M1662 434 c-42 -29 -17 -104 35 -104 20 0 53 38 53 60 0 22 -33 60
-53 60 -7 0 -23 -7 -35 -16z"/>
<path d="M2722 434 c-44 -30 -18 -114 36 -114 18 0 62 46 62 65 0 19 -44 65
-62 65 -8 0 -24 -7 -36 -16z"/>
<path d="M3452 443 c-7 -2 -17 -13 -22 -24 -10 -18 -7 -19 45 -19 57 0 66 8
39 34 -15 16 -37 19 -62 9z"/>
<path d="M4329 431 c-32 -26 -22 -33 42 -29 l54 3 -22 23 c-28 27 -44 28 -74
3z"/>
<path d="M4690 443 c-16 -6 -30 -23 -30 -35 0 -5 23 -8 50 -8 37 0 50 4 50 15
0 24 -38 40 -70 28z"/>
<path d="M4920 430 c-11 -11 -20 -31 -20 -45 0 -30 32 -65 60 -65 28 0 60 35
60 65 0 28 -35 65 -62 65 -10 0 -27 -9 -38 -20z"/>
<path d="M5120 430 c-11 -11 -20 -31 -20 -45 0 -28 32 -65 55 -65 23 0 55 37
55 65 0 28 -32 65 -55 65 -8 0 -24 -9 -35 -20z"/>
<path d="M5312 443 c-7 -2 -17 -13 -22 -24 -10 -18 -7 -19 45 -19 57 0 66 8
39 34 -15 16 -37 19 -62 9z"/>
</g>
</svg>
