<?xml version="1.0" standalone="no"?>
<!DOCTYPE svg PUBLIC "-//W3C//DTD SVG 20010904//EN"
 "http://www.w3.org/TR/2001/REC-SVG-20010904/DTD/svg10.dtd">
<svg version="1.0" xmlns="http://www.w3.org/2000/svg"
 width="481.000000pt" height="227.000000pt" viewBox="0 0 481.000000 227.000000"
 preserveAspectRatio="xMidYMid meet">

<g transform="translate(0.000000,227.000000) scale(0.100000,-0.100000)"
fill="#000000" stroke="none">
<path d="M680 1825 l0 -215 60 0 60 0 0 93 c0 113 12 137 70 137 61 0 70 -16
70 -131 l0 -99 60 0 60 0 0 113 c0 129 -14 168 -71 199 -44 25 -119 19 -160
-11 l-29 -22 0 76 0 75 -60 0 -60 0 0 -215z"/>
<path d="M2490 1825 l0 -215 60 0 60 0 0 215 0 215 -60 0 -60 0 0 -215z"/>
<path d="M2660 1825 l0 -215 51 0 c48 0 53 2 99 53 l48 52 18 -34 c39 -69 44
-72 111 -69 l61 3 -58 95 -59 94 55 63 56 63 -64 -1 -63 0 -65 -82 -65 -82 -3
138 -3 137 -59 0 -60 0 0 -215z"/>
<path d="M3796 2013 c-3 -16 -8 -54 -12 -86 l-6 -57 -34 29 c-139 123 -326
-50 -238 -220 43 -85 163 -104 238 -39 l34 30 6 -30 c5 -29 7 -30 66 -30 54 0
61 2 56 18 -20 70 -17 198 10 375 l6 37 -60 0 c-58 0 -61 -1 -66 -27z m-50
-197 c19 -19 34 -39 34 -46 0 -7 -15 -27 -34 -46 -42 -42 -85 -46 -121 -9 -50
49 -15 135 56 135 22 0 41 -10 65 -34z"/>
<path d="M1630 1820 l0 -210 60 0 60 0 0 65 0 65 83 0 c59 0 94 6 124 20 111
50 111 200 0 250 -35 16 -66 20 -184 20 l-143 0 0 -210z m278 98 c7 -7 12 -21
12 -33 0 -36 -20 -45 -97 -45 l-73 0 0 45 0 45 73 0 c43 0 78 -5 85 -12z"/>
<path d="M220 1970 l0 -50 80 0 80 0 0 -155 0 -155 55 0 55 0 0 155 0 155 80
0 80 0 0 50 0 50 -215 0 -215 0 0 -50z"/>
<path d="M4431 1966 c-15 -27 -37 -50 -58 -60 -24 -12 -33 -22 -33 -41 0 -22
4 -25 35 -25 l35 0 0 -79 c0 -70 3 -83 25 -110 33 -39 84 -55 151 -48 69 7 74
11 74 57 l0 39 -54 -6 c-48 -5 -55 -3 -70 18 -10 14 -16 43 -16 76 l0 52 68 3
67 3 3 43 3 42 -70 0 -71 0 0 40 c0 39 -1 40 -33 40 -28 0 -36 -6 -56 -44z"/>
<path d="M1205 1925 c-57 -20 -102 -73 -110 -128 -9 -56 19 -124 62 -155 67
-48 182 -53 262 -12 36 18 41 25 41 54 l0 33 -52 -18 c-29 -10 -66 -18 -81
-19 -34 0 -88 22 -106 43 -12 16 -3 17 118 17 129 0 131 0 131 23 -1 32 -25
95 -47 119 -46 52 -140 71 -218 43z m135 -85 c33 -33 24 -40 -55 -40 -41 0
-75 3 -75 7 0 4 10 17 22 30 27 29 80 31 108 3z"/>
<path d="M2165 1925 c-51 -18 -102 -73 -111 -119 -21 -115 68 -206 201 -206
65 0 117 20 156 59 65 65 65 157 0 222 -57 57 -158 75 -246 44z m152 -97 c54
-50 15 -138 -61 -138 -77 0 -116 82 -64 137 29 31 92 32 125 1z"/>
<path d="M3120 1922 c-97 -48 -117 -197 -36 -278 57 -57 148 -58 211 -2 l35
30 0 -31 0 -31 63 0 64 0 -9 63 c-5 34 -7 106 -3 160 l6 97 -61 0 -60 0 0 -32
0 -32 -27 26 c-52 50 -121 61 -183 30z m176 -106 c19 -19 34 -39 34 -46 0 -7
-15 -27 -34 -46 -42 -42 -85 -46 -121 -9 -50 49 -15 135 56 135 22 0 41 -10
65 -34z"/>
<path d="M4045 1925 c-51 -18 -102 -73 -111 -119 -21 -115 68 -206 201 -206
65 0 117 20 156 59 65 65 65 157 0 222 -57 57 -158 75 -246 44z m152 -97 c54
-50 15 -138 -61 -138 -77 0 -116 82 -64 137 29 31 92 32 125 1z"/>
<path d="M3404 1345 c-21 -33 -6 -71 31 -81 65 -16 113 32 81 81 -13 20 -25
25 -56 25 -31 0 -43 -5 -56 -25z"/>
<path d="M720 1125 l0 -215 55 0 55 0 0 215 0 215 -55 0 -55 0 0 -215z"/>
<path d="M1730 1125 l0 -215 49 0 c46 0 52 3 94 50 25 28 47 50 50 50 3 0 18
-22 34 -50 l28 -50 64 0 c74 0 74 -6 2 110 l-51 82 29 36 c16 21 38 46 50 56
32 29 26 36 -36 36 l-58 0 -70 -87 -70 -87 -3 142 -3 142 -54 0 -55 0 0 -215z"/>
<path d="M2530 1125 l0 -215 54 0 53 0 5 95 c6 113 19 135 79 135 57 0 69 -24
69 -137 l0 -93 61 0 62 0 -5 113 c-5 130 -21 170 -78 199 -50 25 -100 23 -144
-7 -20 -14 -39 -25 -41 -25 -3 0 -5 34 -5 75 l0 75 -55 0 -55 0 0 -215z"/>
<path d="M233 1313 c22 -79 29 -190 18 -276 -7 -51 -15 -100 -17 -109 -5 -17
8 -18 171 -18 196 0 233 9 260 61 31 59 7 137 -46 154 -20 7 -20 8 5 34 19 19
26 38 26 65 0 91 -35 106 -255 106 -154 0 -166 -1 -162 -17z m291 -85 c8 -13
8 -23 0 -35 -9 -14 -27 -19 -81 -21 -66 -3 -71 -1 -77 20 -15 57 -12 59 70 56
60 -2 79 -7 88 -20z m17 -148 c26 -14 26 -66 0 -80 -11 -5 -56 -10 -100 -10
-89 0 -89 0 -75 69 l7 31 74 0 c41 0 83 -5 94 -10z"/>
<path d="M998 1230 c-91 -27 -133 -88 -126 -178 4 -49 9 -59 45 -93 145 -135
406 -21 353 153 -29 97 -157 153 -272 118z m141 -106 c47 -59 8 -134 -69 -134
-53 0 -80 26 -80 80 0 55 26 80 84 80 36 0 48 -5 65 -26z"/>
<path d="M1415 1225 c-116 -41 -151 -181 -66 -266 97 -97 299 -66 340 52 l10
29 -57 0 c-48 0 -61 -4 -81 -25 -17 -18 -34 -25 -62 -25 -52 0 -79 27 -79 80
0 54 27 80 80 80 31 0 47 -6 64 -25 20 -21 32 -25 79 -25 l56 0 -10 30 c-31
87 -164 134 -274 95z"/>
<path d="M2228 1231 c-90 -29 -133 -89 -126 -176 8 -96 76 -150 193 -150 83 0
138 24 173 75 35 52 30 60 -34 60 -48 0 -59 -4 -76 -25 -15 -19 -29 -25 -59
-25 -52 0 -79 27 -79 80 0 53 27 80 78 80 28 0 45 -7 62 -25 19 -21 33 -25 77
-25 38 0 53 4 53 14 0 26 -45 79 -84 100 -44 22 -135 31 -178 17z"/>
<path d="M3045 1233 c-34 -9 -72 -41 -89 -77 -21 -44 -21 -128 0 -172 42 -89
161 -111 238 -44 l34 30 6 -30 c5 -29 7 -30 66 -30 l61 0 -8 38 c-9 46 -9 218
0 255 l7 27 -60 0 c-59 0 -61 -1 -67 -31 l-6 -30 -26 25 c-43 41 -96 54 -156
39z m150 -114 c19 -17 35 -39 35 -49 0 -10 -16 -32 -35 -49 -55 -48 -113 -39
-134 19 -7 21 -7 39 0 58 22 60 79 69 134 21z"/>
<path d="M3745 1225 c-16 -9 -38 -25 -48 -36 -17 -21 -17 -21 -23 10 -6 31 -7
31 -66 31 -54 0 -59 -2 -52 -17 4 -10 9 -82 12 -160 l4 -143 59 0 59 0 0 95
c0 110 14 135 74 135 57 0 66 -18 66 -131 l0 -99 60 0 60 0 0 113 c0 90 -4
119 -18 146 -34 63 -121 89 -187 56z"/>
<path d="M3400 1069 l0 -159 60 0 60 0 0 159 0 159 -60 0 -60 0 0 -159z"/>
<path d="M1896 573 c-4 -38 -10 -77 -13 -87 -5 -18 -6 -18 -15 -2 -13 23 -85
55 -122 56 -16 0 -49 -9 -72 -21 -112 -53 -112 -245 0 -298 23 -12 56 -21 72
-21 37 0 113 34 120 55 9 21 24 8 24 -21 0 -23 3 -24 60 -24 69 0 67 -4 51
107 -7 43 -5 93 5 165 22 167 24 158 -45 158 l-59 0 -6 -67z m-66 -138 c60
-31 64 -91 7 -125 -42 -26 -75 -25 -104 2 -30 28 -31 83 -1 115 25 27 57 29
98 8z"/>
<path d="M305 430 c-50 -111 -91 -206 -93 -211 -2 -5 24 -9 58 -9 l61 0 17 40
17 40 108 0 108 0 17 -40 17 -40 63 0 c34 0 62 2 62 4 0 2 -42 95 -93 207
l-93 204 -79 3 -80 3 -90 -201z m203 33 l31 -73 -65 0 -64 0 16 38 c8 20 23
54 31 75 9 21 17 37 18 35 2 -2 17 -36 33 -75z"/>
<path d="M845 528 c-79 -29 -117 -81 -117 -158 0 -81 40 -132 126 -160 84 -27
206 10 246 76 30 48 26 54 -35 54 -44 0 -59 -4 -79 -25 -18 -18 -36 -25 -64
-25 -50 0 -77 28 -77 80 0 54 27 80 81 80 33 0 47 -5 62 -25 17 -21 28 -25 76
-25 35 0 56 4 56 11 0 27 -45 81 -83 101 -48 24 -148 33 -192 16z"/>
<path d="M1235 526 c-97 -43 -125 -189 -53 -271 54 -62 147 -71 213 -21 42 32
45 32 45 1 0 -24 3 -25 61 -25 l61 0 -8 67 c-10 86 -10 103 0 186 l8 67 -61 0
c-58 0 -61 -1 -61 -25 0 -31 -3 -31 -46 2 -42 31 -114 40 -159 19z m166 -105
c16 -16 29 -39 29 -50 0 -32 -41 -71 -82 -78 -74 -11 -117 78 -63 132 34 35
78 33 116 -4z"/>
<path d="M2131 513 c-64 -33 -91 -75 -91 -141 0 -141 165 -214 324 -143 42 18
46 23 46 55 l0 35 -32 -13 c-82 -34 -186 -27 -208 14 -10 19 -7 20 115 20
l125 0 0 32 c0 47 -37 114 -76 139 -20 12 -58 23 -92 26 -49 4 -65 0 -111 -24z
m147 -69 c43 -30 28 -44 -48 -44 -54 0 -70 3 -70 14 0 20 39 46 70 46 14 0 36
-7 48 -16z"/>
<path d="M2624 526 c-17 -8 -39 -24 -48 -37 l-16 -23 -6 32 c-6 32 -7 32 -66
32 -54 0 -59 -2 -52 -17 4 -10 9 -82 12 -160 l4 -143 59 0 59 0 0 93 c0 110
13 137 65 137 56 0 65 -18 65 -131 l0 -99 60 0 60 0 0 93 c0 111 13 137 65
137 52 0 65 -26 65 -137 l0 -93 61 0 61 0 -3 118 c-4 131 -14 157 -72 192 -55
34 -113 25 -168 -27 -27 -25 -27 -25 -41 -4 -33 47 -104 63 -164 37z"/>
<path d="M3083 518 c2 -7 31 -70 63 -140 49 -109 61 -128 80 -128 31 0 37 -14
14 -35 -14 -13 -31 -16 -67 -13 -26 3 -56 8 -65 12 -16 7 -18 3 -18 -32 0 -37
3 -41 40 -56 22 -9 55 -16 73 -16 47 1 112 34 131 66 18 31 166 344 166 351 0
2 -28 3 -62 1 l-62 -3 -40 -97 c-22 -54 -43 -98 -46 -98 -3 0 -23 45 -45 100
l-40 100 -64 0 c-46 0 -62 -3 -58 -12z"/>
</g>
</svg>
